<?xml version="1.0" standalone="no"?><!DOCTYPE svg PUBLIC "-//W3C//DTD SVG 1.1//EN" "http://www.w3.org/Graphics/SVG/1.1/DTD/svg11.dtd"><svg t="1657701256408" class="icon" viewBox="0 0 1024 1024" version="1.1" xmlns="http://www.w3.org/2000/svg" p-id="4601" xmlns:xlink="http://www.w3.org/1999/xlink" width="32" height="32"><defs><style type="text/css">@font-face { font-family: feedback-iconfont; src: url("//at.alicdn.com/t/font_1031158_u69w8yhxdu.woff2?t=1630033759944") format("woff2"), url("//at.alicdn.com/t/font_1031158_u69w8yhxdu.woff?t=1630033759944") format("woff"), url("//at.alicdn.com/t/font_1031158_u69w8yhxdu.ttf?t=1630033759944") format("truetype"); }
</style></defs><path d="M796.3 326.5l48.3-48.3c8.7-8.7 8.7-22.9 0-31.7-8.7-8.7-22.9-8.7-31.7 0l-48.3 48.3c-62-55.2-142-90.2-230.3-95.3v-90.7h67.2c12.4 0 22.4-10 22.4-22.4C624 74 614 64 601.6 64H422.4C410 64 400 74 400 86.4c0 12.4 10 22.4 22.4 22.4h67.2v90.7c-88.2 5.1-168.3 40.2-230.3 95.3L211 246.5c-8.7-8.7-22.9-8.7-31.7 0-8.7 8.7-8.7 22.9 0 31.7l48.3 48.3c-59.8 67.3-96.5 155.6-96.5 252.7C131.2 789.5 301.7 960 512 960s380.8-170.5 380.8-380.8c0-97.1-36.6-185.4-96.5-252.7zM512 915.2c-185.3 0-336-150.7-336-336s150.7-336 336-336 336 150.7 336 336-150.7 336-336 336z" p-id="4602" fill="#ffffff"></path><path d="M713.6 556.8H534.4V355.2c0-12.4-10-22.4-22.4-22.4-12.4 0-22.4 10-22.4 22.4V601.6h224c12.3 0 22.4-10.1 22.4-22.4 0-12.3-10.1-22.4-22.4-22.4z" p-id="4603" fill="#ffffff"></path></svg>