<?xml version="1.0" standalone="no"?><!DOCTYPE svg PUBLIC "-//W3C//DTD SVG 1.1//EN" "http://www.w3.org/Graphics/SVG/1.1/DTD/svg11.dtd"><svg t="1657701987895" class="icon" viewBox="0 0 1024 1024" version="1.1" xmlns="http://www.w3.org/2000/svg" p-id="5794" xmlns:xlink="http://www.w3.org/1999/xlink" width="32" height="32"><defs><style type="text/css">@font-face { font-family: feedback-iconfont; src: url("//at.alicdn.com/t/font_1031158_u69w8yhxdu.woff2?t=1630033759944") format("woff2"), url("//at.alicdn.com/t/font_1031158_u69w8yhxdu.woff?t=1630033759944") format("woff"), url("//at.alicdn.com/t/font_1031158_u69w8yhxdu.ttf?t=1630033759944") format("truetype"); }
</style></defs><path d="M747.936 901.171H276.819c-72.2 0-130.953-55.224-130.953-123.078V244.721c0-67.854 58.752-123.078 130.953-123.078h383.525c6.597 0 12.937 2.505 17.795 6.954l192.363 178.046c5.317 4.96 8.386 11.914 8.386 19.227v452.223c0 67.854-58.752 123.078-130.952 123.078zM276.819 174.004c-43.31 0-78.592 31.703-78.592 70.717v533.372c0 39.015 35.282 70.718 78.592 70.718h471.117c43.31 0 78.592-31.703 78.592-70.718V337.324l-176.461-163.32H276.819z" fill="#ffffff" p-id="5795"></path><path d="M830.567 331.546H669.446c-14.471 0-26.18-11.71-26.18-26.181V156.209c0-14.471 11.709-26.18 26.18-26.18s26.181 11.709 26.181 26.18v122.976h134.94c14.471 0 26.181 11.709 26.181 26.18s-11.711 26.181-26.181 26.181z" fill="#ffffff" p-id="5796"></path><path d="M730.214 428.749l-92.04 343.616h-53.179L511.363 498.29l-75.677 274.074h-53.179l-92.04-343.616h49.088l69.542 255.667 69.541-255.667h63.406l69.541 255.667 69.541-255.667h49.088z" fill="#ffffff" p-id="5797"></path></svg>